<svg xmlns:x="http://ns.adobe.com/Extensibility/1.0/" xmlns:i="http://ns.adobe.com/AdobeIllustrator/10.0/" xmlns:graph="http://ns.adobe.com/Graphs/1.0/" xmlns="http://www.w3.org/2000/svg" xmlns:xlink="http://www.w3.org/1999/xlink" version="1.1" x="0px" y="0px" viewBox="0 0 64 80" enable-background="new 0 0 64 64" xml:space="preserve"><metadata><sfw xmlns="http://ns.adobe.com/SaveForWeb/1.0/"><slices/><sliceSourceBounds height="16384" width="16389" x="-8165" y="-8160" bottomLeftOrigin="true"/></sfw></metadata><g><g><path d="M56,25H45v-7c0-0.552-0.447-1-1-1H33V9.082c0.251,0.087,0.563,0.159,0.998,0.159c0.728,0,1.135-0.196,1.433-0.339    c0.209-0.1,0.296-0.142,0.568-0.142s0.359,0.042,0.568,0.142C36.865,9.044,37.272,9.24,38,9.24c0.553,0,1-0.448,1-1s-0.447-1-1-1    c-0.272,0-0.358-0.042-0.567-0.142c-0.298-0.143-0.705-0.339-1.434-0.339s-1.136,0.196-1.434,0.339    c-0.209,0.1-0.295,0.142-0.567,0.142c-0.271,0-0.357-0.042-0.565-0.142C33.135,6.956,32.728,6.76,32,6.76c-0.552,0-1,0.448-1,1    c0,0.042,0.019,0.079,0.024,0.12C31.019,7.921,31,7.958,31,8v9H20c-0.552,0-1,0.448-1,1v7H8c-0.552,0-1,0.448-1,1v30    c0,0.553,0.448,1,1,1h48c0.553,0,1-0.447,1-1V26C57,25.448,56.553,25,56,25z M55,55H9V27h11c0.552,0,1-0.448,1-1v-7h22v7    c0,0.552,0.447,1,1,1h11V55z"/><path d="M20,31h-6c-0.552,0-1,0.448-1,1v6c0,0.553,0.448,1,1,1h6c0.552,0,1-0.447,1-1v-6C21,31.448,20.552,31,20,31z M19,37h-4v-4    h4V37z"/><path d="M35,31h-6c-0.552,0-1,0.448-1,1v6c0,0.553,0.448,1,1,1h6c0.553,0,1-0.447,1-1v-6C36,31.448,35.553,31,35,31z M34,37h-4v-4    h4V37z"/><path d="M43,32v6c0,0.553,0.447,1,1,1h6c0.553,0,1-0.447,1-1v-6c0-0.552-0.447-1-1-1h-6C43.447,31,43,31.448,43,32z M45,33h4v4h-4    V33z"/><path d="M20,43h-6c-0.552,0-1,0.447-1,1v6c0,0.553,0.448,1,1,1h6c0.552,0,1-0.447,1-1v-6C21,43.447,20.552,43,20,43z M19,49h-4v-4    h4V49z"/><path d="M35,43h-6c-0.552,0-1,0.447-1,1v6c0,0.553,0.448,1,1,1h6c0.553,0,1-0.447,1-1v-6C36,43.447,35.553,43,35,43z M34,49h-4v-4    h4V49z"/><path d="M50,43h-6c-0.553,0-1,0.447-1,1v6c0,0.553,0.447,1,1,1h6c0.553,0,1-0.447,1-1v-6C51,43.447,50.553,43,50,43z M49,49h-4v-4    h4V49z"/></g></g><text x="0" y="79" fill="#000000" font-size="5px" font-weight="bold" font-family="'Helvetica Neue', Helvetica, Arial-Unicode, Arial, Sans-serif">Created by Ralf Schmitzer</text><text x="0" y="84" fill="#000000" font-size="5px" font-weight="bold" font-family="'Helvetica Neue', Helvetica, Arial-Unicode, Arial, Sans-serif">from the Noun Project</text></svg>